<svg width="20" height="20" viewBox="0 0 20 20" fill="none" xmlns="http://www.w3.org/2000/svg">
<path d="M6.98438 16.0078C6.98438 16.112 6.90625 16.1771 6.75 16.2031C6.61979 16.2031 6.55469 16.151 6.55469 16.0469C6.55469 15.9427 6.61979 15.8906 6.75 15.8906C6.82812 15.8906 6.88021 15.9036 6.90625 15.9297C6.95833 15.9557 6.98438 15.9818 6.98438 16.0078ZM5.77344 15.8516C5.7474 15.8776 5.7474 15.9167 5.77344 15.9688C5.82552 15.9948 5.8776 16.0208 5.92969 16.0469C5.98177 16.0729 6.03385 16.0729 6.08594 16.0469C6.13802 16.0208 6.16406 15.9818 6.16406 15.9297C6.1901 15.8516 6.13802 15.7995 6.00781 15.7734C5.8776 15.7214 5.79948 15.7474 5.77344 15.8516ZM7.49219 15.7734C7.36198 15.7995 7.29688 15.8516 7.29688 15.9297C7.32292 16.0078 7.34896 16.0599 7.375 16.0859C7.42708 16.0859 7.47917 16.0859 7.53125 16.0859C7.66146 16.0339 7.71354 15.9688 7.6875 15.8906C7.6875 15.8125 7.6224 15.7734 7.49219 15.7734ZM10.0703 0.8125C8.27344 0.8125 6.64583 1.22917 5.1875 2.0625C3.72917 2.89583 2.58333 4.04167 1.75 5.5C0.916667 6.95833 0.5 8.57292 0.5 10.3438C0.5 12.5052 1.11198 14.4453 2.33594 16.1641C3.5599 17.8568 5.16146 19.0286 7.14062 19.6797C7.34896 19.7318 7.50521 19.7057 7.60938 19.6016C7.73958 19.4974 7.80469 19.3672 7.80469 19.2109L7.76562 16.8281L7.33594 16.8672C6.9974 16.9193 6.67188 16.9323 6.35938 16.9062C5.91667 16.8542 5.53906 16.737 5.22656 16.5547C4.86198 16.3464 4.61458 16.0469 4.48438 15.6562L4.32812 15.3438C4.22396 15.1094 4.09375 14.901 3.9375 14.7188C3.75521 14.4844 3.57292 14.3151 3.39062 14.2109L3.19531 14.0547C3.0651 13.9505 3 13.8594 3 13.7812C3.02604 13.6771 3.18229 13.625 3.46875 13.625L3.74219 13.6641C3.95052 13.7422 4.14583 13.8333 4.32812 13.9375C4.58854 14.1198 4.79688 14.3542 4.95312 14.6406C5.31771 15.2917 5.83854 15.6432 6.51562 15.6953C6.93229 15.7474 7.36198 15.6693 7.80469 15.4609C7.88281 14.888 8.09115 14.4453 8.42969 14.1328C7.49219 14.0286 6.78906 13.8984 6.32031 13.7422C5.59115 13.4818 5.04427 13.0781 4.67969 12.5312C4.26302 11.8802 4.05469 10.9688 4.05469 9.79688C4.05469 9.30208 4.11979 8.89844 4.25 8.58594C4.40625 8.2474 4.64062 7.88281 4.95312 7.49219C4.84896 7.25781 4.79688 6.95833 4.79688 6.59375C4.74479 6.02083 4.83594 5.44792 5.07031 4.875C5.30469 4.79688 5.65625 4.84896 6.125 5.03125C6.46354 5.16146 6.84115 5.34375 7.25781 5.57812L7.76562 5.92969C8.54688 5.69531 9.35417 5.57812 10.1875 5.57812C11.0469 5.57812 11.8802 5.69531 12.6875 5.92969L13.1953 5.57812C13.612 5.34375 13.9766 5.16146 14.2891 5.03125C14.7578 4.84896 15.1224 4.79688 15.3828 4.875C15.5911 5.44792 15.6823 6.02083 15.6562 6.59375C15.6302 6.95833 15.5651 7.27083 15.4609 7.53125C15.8255 7.92188 16.0729 8.2474 16.2031 8.50781C16.3854 8.8724 16.4766 9.30208 16.4766 9.79688C16.4766 10.9688 16.2552 11.8932 15.8125 12.5703C15.4219 13.0911 14.862 13.4818 14.1328 13.7422C13.6641 13.8984 12.9479 14.0286 11.9844 14.1328C12.4271 14.4974 12.6484 15.0964 12.6484 15.9297V19.2109C12.6484 19.3672 12.7005 19.4974 12.8047 19.6016C12.9349 19.7057 13.1042 19.7318 13.3125 19.6797C15.2656 19.0286 16.8411 17.8568 18.0391 16.1641C19.263 14.4453 19.875 12.5052 19.875 10.3438C19.875 8.57292 19.4323 6.94531 18.5469 5.46094C17.6875 4.02865 16.5026 2.89583 14.9922 2.0625C13.4818 1.22917 11.8411 0.8125 10.0703 0.8125ZM4.28906 14.2891C4.23698 14.3411 4.25 14.4062 4.32812 14.4844C4.40625 14.5625 4.47135 14.5755 4.52344 14.5234C4.57552 14.4714 4.5625 14.4062 4.48438 14.3281C4.40625 14.25 4.34115 14.237 4.28906 14.2891ZM3.85938 13.9766C3.83333 14.0286 3.85938 14.0807 3.9375 14.1328C4.04167 14.1849 4.10677 14.1849 4.13281 14.1328C4.15885 14.0547 4.13281 14.0026 4.05469 13.9766C3.97656 13.9245 3.91146 13.9245 3.85938 13.9766ZM5.14844 15.3438C5.1224 15.3698 5.10938 15.4089 5.10938 15.4609C5.10938 15.513 5.13542 15.5651 5.1875 15.6172C5.29167 15.7214 5.38281 15.7344 5.46094 15.6562C5.48698 15.6302 5.48698 15.5911 5.46094 15.5391C5.46094 15.487 5.4349 15.4479 5.38281 15.4219C5.35677 15.3698 5.31771 15.3438 5.26562 15.3438C5.21354 15.3177 5.17448 15.3177 5.14844 15.3438ZM4.67969 14.7969C4.6276 14.8229 4.6276 14.901 4.67969 15.0312C4.73177 15.0573 4.77083 15.0833 4.79688 15.1094C4.84896 15.1354 4.88802 15.1354 4.91406 15.1094C4.99219 15.0573 4.99219 14.9792 4.91406 14.875C4.88802 14.8229 4.84896 14.7969 4.79688 14.7969C4.77083 14.7708 4.73177 14.7708 4.67969 14.7969Z" fill="white"/>
</svg>
