<svg width="145" height="33" viewBox="0 0 145 33" fill="none" xmlns="http://www.w3.org/2000/svg">
<path fill-rule="evenodd" clip-rule="evenodd" d="M60.709 24.1886H64.8952C66.0775 24.1886 67.1006 24.0067 67.9646 23.6429C68.8438 23.2792 69.5183 22.7638 69.9882 22.0968C70.4581 21.4299 70.6931 20.6493 70.6931 19.7549C70.6931 18.7697 70.4354 17.936 69.92 17.2539C69.4046 16.5566 68.6695 16.0716 67.7145 15.7987C68.5179 15.5107 69.1394 15.0484 69.5789 14.4118C70.0185 13.7752 70.2383 13.04 70.2383 12.2063C70.2383 10.9179 69.7381 9.89474 68.7377 9.13684C68.0047 8.58154 67.0845 8.22967 65.9772 8.08123L64.9197 11.3145C65.2264 11.3787 65.4759 11.4789 65.6682 11.6152C66.0472 11.8728 66.2366 12.2745 66.2366 12.8202C66.2366 13.3507 66.0547 13.7373 65.6909 13.9798C65.3272 14.2223 64.7512 14.3436 63.9629 14.3436H63.929L62.873 17.5722H64.3949C65.2286 17.5722 65.8198 17.7011 66.1684 17.9587C66.5171 18.2164 66.6914 18.656 66.6914 19.2775C66.6914 19.8838 66.5095 20.3158 66.1457 20.5735C65.7971 20.8312 65.2135 20.96 64.3949 20.96H61.765L60.709 24.1886ZM80.5364 24.3933C78.1718 24.3933 76.3832 23.8021 75.1705 22.6198C73.9579 21.4223 73.3516 19.6716 73.3516 17.3676V8H77.5124V17.5267C77.5124 18.6939 77.7701 19.5882 78.2855 20.2097C78.816 20.8312 79.5663 21.1419 80.5364 21.1419C81.4914 21.1419 82.2265 20.8312 82.7419 20.2097C83.2573 19.5731 83.515 18.6787 83.515 17.5267V8H87.7213V17.3676C87.7213 19.6413 87.0998 21.3844 85.8568 22.5971C84.6291 23.7945 82.8556 24.3933 80.5364 24.3933ZM91.1484 8V24.1886H95.4229V8H91.1484ZM98.9741 24.1886V8H103.249V20.7326H110.092V24.1886H98.9741ZM119.389 8H112.773V24.1886H119.389C121.193 24.1886 122.739 23.8703 124.027 23.2337C125.331 22.5819 126.324 21.6497 127.006 20.4371C127.688 19.2093 128.029 17.7541 128.029 16.0716C128.029 14.4042 127.68 12.9642 126.983 11.7516C126.301 10.5389 125.308 9.61431 124.005 8.97768C122.716 8.32589 121.178 8 119.389 8ZM122.618 19.6185C121.845 20.3916 120.67 20.7781 119.093 20.7781H117.047V11.4105H119.093C122.231 11.4105 123.8 12.9642 123.8 16.0716C123.8 17.648 123.406 18.8303 122.618 19.6185Z" fill="#1D1D1D"/>
<path fill-rule="evenodd" clip-rule="evenodd" d="M56.2143 8H45.0489V24.1886H50.9195L51.9904 20.9145H49.2098V17.5949H53.0761L54.1469 14.3208H49.2098V11.2741H55.1434L56.2143 8ZM55.7798 20.9145L54.709 24.1886H56.5992V20.9145H55.7798ZM42.6931 8H38.6459L35.1672 18.3907L31.6884 8H28.7781L25.163 18.2088L21.8434 8H17.5006L23.2758 24.1886H26.6636L30.1196 14.5709L33.5074 24.1886H36.8952L42.6931 8Z" fill="#34785C"/>
<path d="M59.8684 6H63.6579L56.7895 27H53L59.8684 6Z" fill="#1D1D1D"/>
<path d="M8.80662 16L15.583 9.22361L13.1067 6.7612L3.87697 16.0003L13.1167 25.24L15.5816 22.775L8.80662 16Z" fill="black"/>
<g clip-path="url(#clip0)">
<path d="M136.193 16L129.417 22.7764L131.893 25.2388L141.123 15.9998L131.883 6.76006L129.418 9.22501L136.193 16Z" fill="black"/>
</g>
<defs>
<clipPath id="clip0">
<rect x="145" y="26" width="20" height="20" transform="rotate(-180 145 26)" fill="white"/>
</clipPath>
</defs>
</svg>
