<svg width="17" height="12" viewBox="0 0 17 12" fill="none" xmlns="http://www.w3.org/2000/svg">
<path d="M16.1875 3.96875C16.25 3.90625 16.3125 3.89583 16.375 3.9375C16.4583 3.97917 16.5 4.04167 16.5 4.125V10.5C16.5 10.9167 16.3542 11.2708 16.0625 11.5625C15.7708 11.8542 15.4167 12 15 12H2C1.58333 12 1.22917 11.8542 0.9375 11.5625C0.645833 11.2708 0.5 10.9167 0.5 10.5V4.125C0.5 4.04167 0.53125 3.98958 0.59375 3.96875C0.677083 3.92708 0.75 3.92708 0.8125 3.96875C1.5 4.48958 3.10417 5.66667 5.625 7.5L5.9375 7.78125C6.4375 8.15625 6.83333 8.42708 7.125 8.59375C7.625 8.86458 8.08333 9 8.5 9C8.91667 9 9.375 8.85417 9.875 8.5625C10.1875 8.39583 10.5833 8.125 11.0625 7.75L11.375 7.5C13.8333 5.72917 15.4375 4.55208 16.1875 3.96875ZM8.5 8C8.77083 8 9.10417 7.875 9.5 7.625C9.72917 7.5 10.0521 7.27083 10.4688 6.9375L10.7812 6.71875C13.4062 4.82292 15.1667 3.52083 16.0625 2.8125L16.2188 2.6875C16.4062 2.54167 16.5 2.34375 16.5 2.09375V1.5C16.5 1.08333 16.3542 0.729167 16.0625 0.4375C15.7708 0.145833 15.4167 0 15 0H2C1.58333 0 1.22917 0.145833 0.9375 0.4375C0.645833 0.729167 0.5 1.08333 0.5 1.5V2.09375C0.5 2.34375 0.59375 2.54167 0.78125 2.6875L1 2.84375C1.91667 3.55208 3.65625 4.84375 6.21875 6.71875L6.53125 6.9375C6.94792 7.27083 7.27083 7.5 7.5 7.625C7.89583 7.875 8.22917 8 8.5 8Z" fill="#9B9B9B"/>
</svg>
