<svg width="80" height="80" viewBox="0 0 80 80" fill="none" xmlns="http://www.w3.org/2000/svg">
<circle cx="40" cy="40" r="39.5" fill="white" stroke="#9CCCB8"/>
<path d="M60.494 31.2172L57.15 27.872L52.1291 22.8535L48.7827 19.5071C46.9347 17.6591 43.939 17.6591 42.1424 19.457L34.919 26.6815C35.0193 27.0494 35.1109 27.4014 35.1109 27.7779C35.1109 28.4262 34.8534 29.0479 34.395 29.5063C33.9365 29.9648 33.3148 30.2223 32.6665 30.2223C32.29 30.2223 31.938 30.1306 31.619 29.9779L19.5068 42.0913C19.0673 42.5307 18.7187 43.0525 18.4809 43.6266C18.243 44.2008 18.1206 44.8162 18.1206 45.4377C18.1206 46.0592 18.243 46.6746 18.4809 47.2488C18.7187 47.823 19.0673 48.3447 19.5068 48.7842L22.8533 52.1294L27.8717 57.1491L31.2169 60.4943C31.6564 60.9338 32.1781 61.2824 32.7523 61.5202C33.3265 61.7581 33.9419 61.8805 34.5634 61.8805C35.1849 61.8805 35.8003 61.7581 36.3745 61.5202C36.9486 61.2824 37.4704 60.9338 37.9098 60.4943L50.0233 48.3821C49.863 48.0556 49.779 47.6971 49.7776 47.3334C49.7776 46.6851 50.0351 46.0633 50.4936 45.6049C50.952 45.1465 51.5737 44.889 52.222 44.889C52.5985 44.889 52.9517 44.9806 53.2695 45.1334L60.4928 37.9088C61.3802 37.0215 61.8788 35.8181 61.879 34.5633C61.8792 33.3084 61.3811 32.1048 60.494 31.2172ZM37.5554 35.1112C37.2343 35.1111 36.9163 35.0478 36.6197 34.9248C36.3231 34.8019 36.0536 34.6217 35.8266 34.3946C35.5996 34.1675 35.4196 33.8979 35.2968 33.6012C35.174 33.3046 35.1108 32.9866 35.1109 32.6655C35.111 32.3444 35.1743 32.0265 35.2973 31.7299C35.4202 31.4333 35.6004 31.1638 35.8275 30.9368C36.0546 30.7098 36.3242 30.5298 36.6209 30.407C36.9175 30.2842 37.2355 30.221 37.5566 30.2211C38.2051 30.2212 38.8269 30.479 39.2853 30.9376C39.7437 31.3963 40.0012 32.0183 40.001 32.6667C40.0009 33.3152 39.7431 33.9371 39.2845 34.3955C38.8258 34.8539 38.2038 35.1113 37.5554 35.1112ZM42.4443 40.0001C42.1232 40 41.8052 39.9367 41.5086 39.8137C41.212 39.6908 40.9425 39.5106 40.7155 39.2835C40.4885 39.0564 40.3085 38.7868 40.1857 38.4901C40.0629 38.1935 39.9997 37.8755 39.9998 37.5544C39.9999 37.2333 40.0632 36.9154 40.1862 36.6188C40.3091 36.3222 40.4893 36.0527 40.7164 35.8257C40.9435 35.5987 41.2131 35.4186 41.5097 35.2958C41.8064 35.173 42.1244 35.1099 42.4455 35.11C43.0939 35.1101 43.7158 35.3679 44.1742 35.8265C44.6326 36.2852 44.8901 36.9072 44.8899 37.5556C44.8898 38.2041 44.632 38.8259 44.1733 39.2844C43.7147 39.7428 43.0927 40.0002 42.4443 40.0001ZM47.3331 44.889C47.0121 44.8889 46.6941 44.8256 46.3975 44.7026C46.1009 44.5797 45.8314 44.3995 45.6044 44.1724C45.3774 43.9453 45.1974 43.6757 45.0746 43.379C44.9518 43.0823 44.8886 42.7644 44.8887 42.4433C44.8888 42.1222 44.9521 41.8043 45.0751 41.5077C45.198 41.211 45.3782 40.9415 45.6053 40.7146C45.8324 40.4876 46.102 40.3075 46.3986 40.1847C46.6953 40.0619 47.0133 39.9988 47.3344 39.9988C47.9828 39.999 48.6047 40.2568 49.0631 40.7154C49.5215 41.1741 49.779 41.796 49.7788 42.4445C49.7787 43.093 49.5209 43.7148 49.0622 44.1733C48.6036 44.6317 47.9816 44.8891 47.3331 44.889Z" fill="#34785C"/>
<path d="M31.4442 54.6665C31.2023 54.6671 30.9656 54.5957 30.7643 54.4615C30.563 54.3273 30.4061 54.1363 30.3135 53.9128C30.2209 53.6892 30.1968 53.4432 30.2443 53.206C30.2918 52.9687 30.4086 52.7509 30.5801 52.5802L35.469 47.6913C35.5825 47.5778 35.7172 47.4878 35.8655 47.4264C36.0137 47.365 36.1726 47.3334 36.3331 47.3334C36.4936 47.3334 36.6525 47.365 36.8008 47.4264C36.949 47.4878 37.0838 47.5778 37.1972 47.6913C37.3107 47.8048 37.4007 47.9395 37.4621 48.0878C37.5236 48.236 37.5552 48.395 37.5552 48.5554C37.5552 48.7159 37.5236 48.8748 37.4621 49.0231C37.4007 49.1714 37.3107 49.3061 37.1972 49.4195L32.3083 54.3084C32.195 54.4221 32.0603 54.5122 31.912 54.5737C31.7637 54.6352 31.6048 54.6667 31.4442 54.6665ZM27.7776 50.9999C27.5356 51.0004 27.299 50.9291 27.0976 50.7948C26.8963 50.6606 26.7394 50.4696 26.6468 50.2461C26.5542 50.0226 26.5301 49.7766 26.5776 49.5393C26.6251 49.302 26.742 49.0842 26.9135 48.9135L35.469 40.358C35.5825 40.2445 35.7172 40.1545 35.8655 40.0931C36.0137 40.0317 36.1726 40.0001 36.3331 40.0001C36.4936 40.0001 36.6525 40.0317 36.8008 40.0931C36.949 40.1545 37.0838 40.2445 37.1972 40.358C37.3107 40.4715 37.4007 40.6062 37.4621 40.7544C37.5236 40.9027 37.5552 41.0616 37.5552 41.2221C37.5552 41.3826 37.5236 41.5415 37.4621 41.6898C37.4007 41.838 37.3107 41.9727 37.1972 42.0862L28.6417 50.6418C28.5283 50.7554 28.3936 50.8456 28.2454 50.907C28.0971 50.9685 27.9381 51 27.7776 50.9999ZM24.1109 47.3332C23.8689 47.3337 23.6323 47.2624 23.431 47.1282C23.2296 46.994 23.0727 46.803 22.9801 46.5794C22.8876 46.3559 22.8635 46.1099 22.9109 45.8726C22.9584 45.6354 23.0753 45.4176 23.2468 45.2469L31.8023 36.6913C31.9158 36.5778 32.0505 36.4878 32.1988 36.4264C32.3471 36.365 32.506 36.3334 32.6665 36.3334C32.8269 36.3334 32.9858 36.365 33.1341 36.4264C33.2824 36.4878 33.4171 36.5778 33.5306 36.6913C33.644 36.8048 33.7341 36.9395 33.7955 37.0878C33.8569 37.236 33.8885 37.395 33.8885 37.5554C33.8885 37.7159 33.8569 37.8748 33.7955 38.0231C33.7341 38.1714 33.644 38.3061 33.5306 38.4195L24.975 46.9751C24.8617 47.0888 24.727 47.1789 24.5787 47.2404C24.4304 47.3018 24.2714 47.3334 24.1109 47.3332ZM42.9295 26.2902C42.63 25.6375 42.6496 24.8492 43.1788 24.3212C43.7288 23.7712 44.4731 23.7504 45.1466 24.0719L52.8185 27.6787C53.0458 27.7813 53.212 27.9072 53.2841 27.9793C53.6887 28.3839 53.6373 28.9962 53.2536 29.38C52.8197 29.8151 52.3723 29.8053 51.958 29.5975L50.6735 28.9339L47.7927 31.8147L48.4453 33.0894C48.6641 33.5135 48.6739 33.9597 48.2486 34.385C47.833 34.7993 47.1693 34.8409 46.755 34.4265C46.5888 34.2603 46.5179 34.0843 46.4861 34.0122L42.9295 26.2902ZM46.8063 29.9385L48.7753 27.9695L44.8056 25.9272L44.7848 25.948L46.8063 29.9385Z" fill="#FEFCF8"/>
</svg>
