<svg width="312" height="95" viewBox="0 0 312 95" fill="none" xmlns="http://www.w3.org/2000/svg">
<path fill-rule="evenodd" clip-rule="evenodd" d="M186.119 81.7011H204.741C210 81.7011 214.551 80.892 218.394 79.2738C222.305 77.6556 225.306 75.363 227.396 72.3963C229.486 69.4295 230.531 65.9571 230.531 61.9789C230.531 57.5962 229.385 53.8877 227.092 50.8535C224.8 47.7519 221.53 45.5942 217.282 44.3806C220.855 43.0995 223.62 41.043 225.575 38.2111C227.531 35.3791 228.508 32.1089 228.508 28.4005C228.508 22.6692 226.283 18.1179 221.833 14.7466C218.573 12.2765 214.479 10.7112 209.554 10.051L204.85 24.4335C206.214 24.7191 207.324 25.1649 208.179 25.7709C209.865 26.9171 210.708 28.7039 210.708 31.1313C210.708 33.4912 209.899 35.2106 208.28 36.2894C206.662 37.3682 204.1 37.9076 200.594 37.9076H200.443L195.745 52.2695H202.515C206.224 52.2695 208.854 52.8426 210.404 53.9889C211.955 55.1351 212.731 57.0905 212.731 59.855C212.731 62.552 211.921 64.4737 210.303 65.6199C208.752 66.7662 206.156 67.3393 202.515 67.3393H190.816L186.119 81.7011Z" fill="#1D1D1D"/>
<path fill-rule="evenodd" clip-rule="evenodd" d="M153.979 46.8282L141.545 9.6897H128.599L112.518 55.1014L97.7515 9.6897H78.4338L104.123 81.7012H119.193L134.566 38.9191L145.974 71.3035L153.979 46.8282ZM159.43 81.7012H164.706L190.497 9.6897H182.982L159.43 81.7012Z" fill="#34785C"/>
<path d="M39.7605 45.2758L69.9038 15.1326L58.8884 4.17908L17.832 45.277L58.9328 86.3777L69.8975 75.4129L39.7605 45.2758Z" fill="black"/>
<path d="M272.791 45.2759L242.648 75.4192L253.663 86.3726L294.72 45.2748L253.619 4.17404L242.654 15.1388L272.791 45.2759Z" fill="black"/>
<path fill-rule="evenodd" clip-rule="evenodd" d="M199.237 0.793091H182.38L151.828 94.2069H168.684L199.237 0.793091Z" fill="#1D1D1D"/>
</svg>
