<svg width="88" height="88" viewBox="0 0 88 88" fill="none" xmlns="http://www.w3.org/2000/svg">
<path d="M32.2144 29.437C38.1267 24.6517 46.4507 24.0667 52.9466 27.817C57.7552 30.5933 61.0463 35.4135 61.8949 40.9574L61.9177 41.3075L75.7391 46.5919L75.7421 45.8074C76.5133 33.5615 70.3847 22.1613 59.7551 16.0244C53.0905 12.1766 45.2687 10.9177 37.7267 12.2912C30.2692 13.7134 23.5262 17.7945 18.7691 23.696L18.2957 24.3211L31.9842 29.641L32.2144 29.437ZM20.242 23.8724C24.7072 18.4763 30.9897 14.8033 37.9153 13.5232C45.2399 12.1365 52.7114 13.4177 59.1229 17.1194C69.0775 22.8667 74.9918 33.4692 74.5739 44.9084L63.1047 40.4205C62.136 34.6949 58.5919 29.7286 53.5302 26.8062C46.6969 22.861 37.9381 23.4197 31.6269 28.3116L20.242 23.8724Z" fill="#E7E7E7"/>
<path d="M56.3497 57.1859L56.0708 57.4741C50.1685 62.8267 41.4325 63.7355 34.5149 59.7416C29.3688 56.7705 26.0192 51.4672 25.3651 45.5864L25.3423 45.2362L11.9556 39.9783L11.8683 40.714C10.7824 53.1152 16.9567 65.2156 27.755 71.45C41.759 79.5353 59.6844 75.9579 69.3116 62.9848L69.785 62.3596L56.3497 57.1859ZM28.3386 70.4392C18.1308 64.5458 12.2067 53.376 12.9878 41.6973L24.2883 46.0878C25.0624 52.1503 28.6651 57.5996 33.9799 60.6681C41.235 64.8569 50.2727 64.0099 56.6226 58.4666L67.9231 62.857C58.5292 74.8416 41.5834 78.0861 28.3386 70.4392Z" fill="#E7E7E7"/>
<path d="M40.1455 17.8432L40.1366 20.1965L39.3962 17.9721L38.7798 18.0655L38.6865 20.3702L38.0305 18.1944L37.3298 18.2391L38.4761 21.7087L39.1768 21.664L39.3059 19.4923L40.0105 21.5838L40.7599 21.4549L40.8462 17.7985L40.1455 17.8432Z" fill="#E7E7E7"/>
<path d="M45.1683 21.4169L45.2428 20.8983L43.8543 20.7706L43.9545 19.8176L45.0413 19.8835L45.1157 19.3649L43.9446 19.2503L43.9962 18.3816L45.3003 18.4607L45.3748 17.9421L43.3342 17.7748L43.1635 21.3825L45.1683 21.4169Z" fill="#E7E7E7"/>
<path d="M48.1013 21.9874C48.4874 22.0979 48.7533 22.0269 48.935 21.9071C49.1166 21.7874 49.2625 21.5347 49.3727 21.149C49.4213 21.0648 49.3856 20.9319 49.3856 20.9319C49.4342 20.8476 49.3498 20.7989 49.3141 20.666C49.2784 20.533 49.2784 20.533 49.194 20.4843C49.1097 20.4356 49.0253 20.3869 48.9409 20.3382C49.0739 20.3027 49.0739 20.3027 49.2069 20.2672C49.2556 20.1829 49.3399 20.2316 49.3885 20.1474C49.4372 20.0632 49.4858 19.9789 49.4858 19.9789C49.5344 19.8947 49.5831 19.8105 49.5831 19.8105C49.596 19.5933 49.6446 19.5091 49.6089 19.3761C49.5731 19.2432 49.5374 19.1102 49.4531 19.0615C49.3687 19.0128 49.2486 18.8312 49.1642 18.7825C48.9955 18.6851 48.9112 18.6364 48.6938 18.6232L47.6199 18.3401L46.8458 21.824L48.1013 21.9874ZM48.7464 20.6751C48.7821 20.8081 48.7335 20.8923 48.7692 21.0253C48.7206 21.1095 48.7206 21.1095 48.672 21.1937C48.6233 21.278 48.6233 21.278 48.5747 21.3622C48.5261 21.4464 48.5261 21.4464 48.4417 21.3977C48.4417 21.3977 48.3087 21.4332 48.2243 21.3845L47.8383 21.274L48.0229 20.3697L48.5419 20.4448C48.6263 20.4935 48.7107 20.5422 48.7464 20.6751ZM48.668 19.0575C48.7524 19.1062 48.9211 19.2036 48.9211 19.2036C49.0054 19.2523 48.9925 19.4695 48.9439 19.5538C48.8953 19.638 48.798 19.8065 48.7494 19.8907C48.7007 19.9749 48.5678 20.0104 48.399 19.913L48.013 19.8024L48.1976 18.8982L48.668 19.0575Z" fill="#E7E7E7"/>
<path d="M51.3129 22.2691C51.3486 22.402 51.3357 22.6192 51.42 22.6679C51.4558 22.8008 51.6245 22.8983 51.6602 23.0312C51.8289 23.1286 51.9133 23.1773 52.082 23.2747C52.2508 23.3721 52.3837 23.3366 52.5525 23.434C52.6855 23.3985 52.9028 23.4117 53.0358 23.3762C53.1688 23.3406 53.3018 23.3051 53.3991 23.1366C53.4963 22.9682 53.545 22.8839 53.6909 22.6312L54.6536 20.3793L54.0144 20.1226L53.0517 22.3745C53.0031 22.4588 52.9544 22.543 52.9058 22.6272C52.8572 22.7115 52.8572 22.7115 52.7242 22.747L52.5912 22.7825C52.5068 22.7338 52.5068 22.7338 52.4225 22.6851C52.3381 22.6364 52.3381 22.6364 52.2537 22.5877C52.1694 22.539 52.1694 22.539 52.1336 22.406C52.1336 22.406 52.0979 22.2731 52.1465 22.1889C52.1952 22.1046 52.1595 21.9717 52.2081 21.8875L53.1708 19.6355L52.5316 19.3788L51.5689 21.6307C51.29 21.919 51.2771 22.1361 51.3129 22.2691Z" fill="#E7E7E7"/>
<path d="M56.7502 21.4961L54.8997 24.5828L55.4845 24.9334L57.335 21.8467L56.7502 21.4961Z" fill="#E7E7E7"/>
<path d="M59.1099 26.8831L58.1104 26.0815L59.9912 23.798L59.4979 23.2886L57.1924 26.113L58.7337 27.3398L59.1099 26.8831Z" fill="#E7E7E7"/>
<path d="M61.1288 29.6209C61.2975 29.7183 61.5149 29.7315 61.5992 29.7802C61.8166 29.7934 61.9496 29.7579 62.1312 29.6381C62.3128 29.5184 62.4944 29.3986 62.6761 29.2788L63.088 28.9551C63.2696 28.8353 63.4155 28.5826 63.5127 28.4142C63.61 28.2457 63.7073 28.0772 63.7202 27.86C63.7331 27.6429 63.6974 27.5099 63.6616 27.377C63.6259 27.2441 63.5058 27.0624 63.3857 26.8808L62.7724 26.1897L60.0579 28.5534L60.6712 29.2445C60.8757 29.4748 61.0444 29.5722 61.1288 29.6209ZM62.8051 27.1071L62.9252 27.2887C63.0096 27.3375 63.0453 27.4704 63.081 27.6033C63.1167 27.7363 63.1167 27.7363 63.0681 27.8205C63.0195 27.9047 62.9708 27.989 62.9222 28.0732C62.8736 28.1574 62.692 28.2772 62.6433 28.3614L62.2314 28.6852C62.0498 28.8049 62.0012 28.8892 61.8682 28.9247C61.7352 28.9602 61.6866 29.0445 61.6022 28.9958C61.4692 29.0313 61.3848 28.9826 61.3005 28.9339C61.2161 28.8852 61.1318 28.8365 61.096 28.7035L60.9759 28.5219L62.8051 27.1071Z" fill="#E7E7E7"/>
<path d="M24.3557 53.7638C24.2356 53.5822 24.1999 53.4492 24.0311 53.3518C23.8624 53.2544 23.7781 53.2057 23.6093 53.1083C23.4406 53.0109 23.3076 53.0464 23.0903 53.0332C22.8729 53.02 22.6913 53.1398 22.4253 53.2109L21.8447 53.4372C21.5787 53.5082 21.3971 53.628 21.2998 53.7965C21.1668 53.832 21.0695 54.0005 20.9723 54.1689C20.875 54.3374 20.9107 54.4703 20.8135 54.6388C20.8006 54.856 20.8363 54.9889 20.9564 55.1706C21.1122 55.4851 21.3167 55.7155 21.5698 55.8616C21.8228 56.0077 22.1732 55.9854 22.6208 55.7946L22.3092 55.1654C22.1762 55.2009 22.0432 55.2365 22.0432 55.2365C22.0432 55.2365 21.9102 55.272 21.8258 55.2233C21.7415 55.1746 21.7415 55.1746 21.6571 55.1259C21.5727 55.0772 21.6214 54.9929 21.537 54.9442C21.5013 54.8113 21.5013 54.8113 21.4656 54.6783C21.5142 54.5941 21.5142 54.5941 21.5628 54.5099C21.6114 54.4256 21.6601 54.3414 21.7931 54.3059C21.9261 54.2704 21.9747 54.1861 22.1563 54.0664L22.7369 53.84C22.8699 53.8045 23.0516 53.6847 23.1359 53.7334C23.2689 53.6979 23.3533 53.7466 23.4863 53.7111C23.5706 53.7598 23.655 53.8085 23.655 53.8085C23.7393 53.8572 23.7751 53.9902 23.7751 53.9902C23.8108 54.1231 23.8108 54.1231 23.8465 54.256C23.8823 54.389 23.8823 54.389 23.8336 54.4732C23.785 54.5574 23.785 54.5574 23.652 54.593C23.6034 54.6772 23.4704 54.7127 23.3374 54.7483L23.649 55.3774C24.0123 55.1379 24.2425 54.9339 24.3884 54.6812C24.5343 54.4285 24.5115 54.0784 24.3557 53.7638Z" fill="#E7E7E7"/>
<path d="M26.5987 57.8665C26.563 57.7335 26.4429 57.5519 26.4071 57.419C26.287 57.2373 26.1183 57.1399 26.034 57.0912C25.8652 56.9938 25.7809 56.9451 25.5635 56.9319C25.3462 56.9187 25.2132 56.9542 24.9958 56.9411C24.8142 57.0608 24.5482 57.1319 24.3666 57.2516L23.8217 57.6109C23.6401 57.7307 23.4098 57.9347 23.3126 58.1031C23.2153 58.2716 23.118 58.4401 23.0208 58.6085C23.0079 58.8257 22.9592 58.9099 23.0793 59.0916C23.115 59.2245 23.2351 59.4062 23.2709 59.5391C23.391 59.7208 23.5597 59.8182 23.644 59.8669C23.8128 59.9643 23.8971 60.013 24.1145 60.0262C24.3318 60.0394 24.4648 60.0038 24.6822 60.017C24.8152 59.9815 25.0812 59.9104 25.3114 59.7064L25.8563 59.3472C26.0379 59.2274 26.2682 59.0234 26.3655 58.8549C26.4627 58.6865 26.56 58.518 26.6572 58.3495C26.6701 58.1324 26.6344 57.9994 26.5987 57.8665ZM25.7392 58.381C25.6906 58.4653 25.5089 58.585 25.3759 58.6206L24.9154 59.0286C24.7338 59.1483 24.6852 59.2325 24.5522 59.2681C24.4192 59.3036 24.3705 59.3878 24.2862 59.3391C24.2018 59.2904 24.0688 59.326 24.0688 59.326C23.9845 59.2772 23.9001 59.2285 23.9487 59.1443C23.8644 59.0956 23.8286 58.9627 23.8773 58.8784C23.8416 58.7455 23.8415 58.7455 23.8902 58.6613C23.9388 58.577 23.9874 58.4928 24.0361 58.4086C24.0847 58.3243 24.2663 58.2046 24.315 58.1203L24.8598 57.761C25.0415 57.6413 25.1745 57.6058 25.2231 57.5215C25.3561 57.486 25.4891 57.4505 25.4891 57.4505C25.6221 57.4149 25.7064 57.4636 25.7064 57.4636C25.7908 57.5124 25.8752 57.5611 25.9109 57.694C25.9953 57.7427 26.031 57.8756 25.9824 57.9599C25.9337 58.0441 26.0181 58.0928 25.9694 58.1771C25.9208 58.2613 25.7878 58.2968 25.7392 58.381Z" fill="#E7E7E7"/>
<path d="M27.6189 62.7233L28.8963 60.3161L28.2343 59.7092L25.8086 62.352L26.3019 62.8614L26.9569 62.1165L27.9395 60.9991L26.8438 63.2866L27.217 63.6143L29.3479 62.2614L28.2809 63.3301L27.6259 64.075L28.1678 64.5002L30.5934 61.8575L29.9314 61.2506L27.6189 62.7233Z" fill="#E7E7E7"/>
<path d="M34.088 63.9875L32.2688 65.9696L32.8583 63.3899L32.0147 62.9028L30.2997 66.0682L30.9746 66.4578L31.3765 65.5668L32.0703 64.1703L31.5294 66.6658L31.9512 66.9094L33.7575 65.1445L33.028 66.408L32.5417 67.2503L33.2166 67.64L34.8473 64.4259L34.088 63.9875Z" fill="#E7E7E7"/>
<path d="M38.8282 65.7134L38.1405 65.5409L37.4308 67.939C37.3822 68.0232 37.3336 68.1074 37.2849 68.1917C37.2363 68.2759 37.2363 68.2759 37.1877 68.3601C37.139 68.4444 37.0547 68.3957 37.0547 68.3957C36.9703 68.347 36.9217 68.4312 36.8373 68.3825C36.7529 68.3338 36.7529 68.3338 36.6686 68.2851C36.5842 68.2364 36.5842 68.2364 36.4999 68.1877C36.4999 68.1877 36.4641 68.0547 36.5128 67.9705C36.5614 67.8863 36.5257 67.7533 36.5743 67.6691L37.2839 65.271L36.5961 65.0985L35.8865 67.4966C35.8736 67.7138 35.7763 67.8823 35.8121 68.0152C35.8478 68.1481 35.8835 68.2811 35.9193 68.414C35.955 68.547 36.1237 68.6444 36.2081 68.6931C36.3768 68.7905 36.4612 68.8392 36.6785 68.8524C36.8472 68.9498 36.9802 68.9143 37.1976 68.9274C37.3306 68.8919 37.4636 68.8564 37.5966 68.8209C37.7296 68.7853 37.8268 68.6169 37.8755 68.5326C37.9727 68.3642 38.0213 68.2799 38.1672 68.0272L38.8282 65.7134Z" fill="#E7E7E7"/>
<path d="M42.293 66.1414L42.1997 68.4461L41.2906 66.1242L40.5542 66.0359L40.2991 69.5949L41.0355 69.6832L41.1775 67.2943L42.1223 69.7491L42.7744 69.7886L43.0781 66.1454L42.293 66.1414Z" fill="#E7E7E7"/>
<path d="M45.5891 65.9901L44.9112 66.0603L45.2875 69.6414L45.9654 69.5712L45.5891 65.9901Z" fill="#E7E7E7"/>
<path d="M49.8677 65.6854L49.7247 65.1537L47.3309 65.7932L47.4738 66.3249L48.2717 66.1118L49.0578 69.0364L49.7714 68.7746L49.0211 65.9828L49.8677 65.6854Z" fill="#E7E7E7"/>
<path d="M52.7735 63.7691L52.9363 65.4354L51.781 64.3192L51.0674 64.581L52.9333 66.2199L53.4722 67.4295L54.1501 67.0347L53.5625 65.9093L53.4028 63.4585L52.7735 63.7691Z" fill="#E7E7E7"/>
<path d="M31.2972 22.8427C30.791 22.5504 30.2104 22.7768 29.9672 23.1979C29.6754 23.7033 29.9027 24.2838 30.3245 24.5273C30.8307 24.8196 31.4113 24.5932 31.6545 24.1721C31.8976 23.7509 31.8033 23.1349 31.2972 22.8427Z" fill="#E7E7E7"/>
<path d="M66.614 38.628C67.0799 38.897 67.6753 38.738 67.9439 38.2728C68.2125 37.8076 68.0525 37.2124 67.5866 36.9434C67.1207 36.6744 66.5252 36.8334 66.2567 37.2986C65.9881 37.7638 66.148 38.359 66.614 38.628Z" fill="#E7E7E7"/>
<path d="M18.5865 49.5345C19.0525 49.8035 19.6479 49.6445 19.9165 49.1793C20.1851 48.714 20.0251 48.1189 19.5592 47.8499C19.0933 47.5809 18.4978 47.7399 18.2293 48.2051C17.9607 48.6703 18.1206 49.2655 18.5865 49.5345Z" fill="#E7E7E7"/>
<path d="M57.8541 64.9055C58.13 65.4017 58.7335 65.5255 59.2297 65.2504C59.726 64.9754 59.849 64.3726 59.5731 63.8763C59.2972 63.3801 58.6938 63.2563 58.1975 63.5314C57.737 63.9394 57.5296 64.4935 57.8541 64.9055Z" fill="#E7E7E7"/>
<path d="M52.2071 28.5132C46.4705 25.2012 39.7781 25.4929 34.0018 29.4581L33.0937 30.057L60.7722 40.7586L60.5708 39.7437C59.5376 35.104 56.5939 31.0459 52.2071 28.5132Z" fill="#E7E7E7"/>
<path d="M34.8941 58.5004C41.5587 62.3482 48.6987 61.8657 54.1148 57.3555L54.8542 56.6593L26.585 45.6167L26.7021 46.5828C27.3949 51.8121 30.0855 55.7241 34.8941 58.5004Z" fill="#E7E7E7"/>
<path d="M31.1978 36.2626L29.5086 38.9936L30.6182 39.4096L31.1978 36.2626Z" fill="#E7E7E7"/>
<path d="M71.0008 60.2537C71.0494 60.1695 71.0981 60.0852 71.1467 60.001C73.1893 56.4632 74.5083 52.62 75.0552 48.5556L75.1554 47.6027L17.5304 25.4517L17.0084 26.1611C16.4863 26.8705 16.1459 27.4601 15.8054 28.0497C14.0547 31.0821 12.8587 34.3225 12.1332 37.7222L11.9486 38.6265L70.3815 61.1316L71.0008 60.2537ZM28.0548 37.0312C27.8245 37.2352 27.5099 37.3904 27.1595 37.4128C26.8092 37.4351 26.5075 37.3733 26.037 37.214L25.4822 37.0059L24.2505 40.1134L23.1409 39.6974L26.1422 31.7714L27.891 32.4442C28.1927 32.506 28.4458 32.6522 28.6503 32.8825C28.9033 33.0286 28.9748 33.2945 29.1306 33.6091C29.2021 33.875 29.2735 34.1409 29.2964 34.491C29.2348 34.7924 29.1247 35.178 28.9659 35.6479C28.8557 36.0335 28.7098 36.2862 28.5639 36.5389C28.3823 36.6587 28.2364 36.9114 28.0548 37.0312ZM30.136 42.3883L30.4209 40.5311L28.8408 39.9558L27.8324 41.5076L26.7228 41.0916L31.4729 33.8383L32.4138 34.1569L31.1613 42.7556L30.136 42.3883ZM35.9431 43.0455C35.7972 43.2982 35.5669 43.5022 35.3853 43.622C35.155 43.826 34.889 43.897 34.5873 43.8351C34.237 43.8575 33.9353 43.7956 33.5492 43.685C33.2961 43.5389 33.043 43.3928 32.7899 43.2467C32.5855 43.0163 32.4654 42.8347 32.3453 42.653C32.2738 42.3871 32.1537 42.2055 32.2153 41.9041C32.2282 41.6869 32.2897 41.3855 32.3512 41.0841L32.4614 40.6985L33.571 41.1145L33.4609 41.5001C33.3636 41.6686 33.3507 41.8857 33.4221 42.1516C33.4936 42.4175 33.6623 42.5149 33.9154 42.661C34.0841 42.7584 34.3015 42.7716 34.4345 42.7361C34.5675 42.7006 34.7005 42.665 34.7491 42.5808C34.7977 42.4966 34.9794 42.3768 34.9436 42.2439C35.0409 42.0754 35.0895 41.9912 35.1024 41.774C35.1997 41.6055 35.2126 41.3884 35.3099 41.2199C35.3585 41.1357 35.3714 40.9185 35.287 40.8698C35.2513 40.7368 35.1669 40.6881 35.1312 40.5552C35.0469 40.5065 35.0111 40.3736 34.8424 40.2761L34.1804 39.6693C33.7229 39.2928 33.5313 38.8453 33.5085 38.4952C33.4857 38.1451 33.5601 37.6265 33.7189 37.1566C33.7804 36.8552 33.9263 36.6025 34.1566 36.3985C34.3025 36.1458 34.5328 35.9418 34.7987 35.8708C34.9804 35.751 35.2464 35.68 35.5967 35.6576C35.8627 35.5866 36.1644 35.6485 36.5019 35.8433C36.7549 35.9894 37.008 36.1355 37.2611 36.2816C37.4656 36.512 37.5857 36.6936 37.7057 36.8753C37.8973 37.3228 37.9559 37.8059 37.7971 38.2757L37.5896 38.8298L36.48 38.4138L36.6259 38.1611C36.7718 37.9084 36.7004 37.6426 36.7133 37.4254C36.6418 37.1595 36.5217 36.9779 36.22 36.916C36.0513 36.8186 35.9183 36.8541 35.7853 36.8896C35.6166 36.7922 35.4836 36.8277 35.4349 36.912C35.3863 36.9962 35.2533 37.0317 35.156 37.2002C35.1074 37.2844 35.0101 37.4529 34.9615 37.5371C34.8642 37.7056 34.9 37.8385 34.8513 37.9228C34.8027 38.007 34.8384 38.1399 34.7898 38.2242C34.8255 38.3571 34.8255 38.3571 34.8613 38.49C34.9456 38.5388 34.9814 38.6717 35.1501 38.7691L35.8964 39.4246C36.1009 39.655 36.2696 39.7524 36.3411 40.0183C36.4612 40.1999 36.5326 40.4658 36.5683 40.5987C36.5554 40.8159 36.5425 41.0331 36.5296 41.2503C36.5167 41.4674 36.3708 41.7201 36.3093 42.0215C36.2835 42.4559 36.089 42.7928 35.9431 43.0455ZM38.2407 45.4952L37.1311 45.0792L39.6818 38.1285L38.4035 37.615L38.8183 36.5068L42.6176 37.9141L42.2027 39.0224L40.9244 38.5089L38.2407 45.4952ZM42.1243 46.9512L45.1256 39.0252L48.5388 40.322L48.1239 41.4302L45.9047 40.5982L45.0264 42.8988L46.9438 43.6689L46.529 44.7772L44.6115 44.007L43.7331 46.3077L45.9523 47.1397L45.5375 48.2479L42.1243 46.9512ZM48.4802 49.3854L47.455 49.0181L48.8762 40.5168L50.0702 40.9815L48.8524 46.7925L51.8676 41.57L53.0616 42.0347L48.4802 49.3854ZM50.7838 50.2661L53.7851 42.3401L57.1983 43.6368L56.832 44.6608L54.6128 43.8288L53.7345 46.1295L55.652 46.8996L55.2371 48.0078L53.3196 47.2377L52.4412 49.5383L54.6605 50.3704L54.2456 51.4786L50.7838 50.2661ZM57.7789 52.9569L57.7997 47.4657L55.9457 52.2355L54.8361 51.8195L57.8374 43.8935L58.947 44.3096L58.8418 49.7521L60.6958 44.9823L61.8054 45.3983L58.8041 53.3243L57.7789 52.9569ZM61.7468 54.4617L60.6372 54.0457L63.2237 47.2279L61.9453 46.7145L62.2758 45.5576L66.0751 46.9649L65.6602 48.0731L64.3819 47.5597L61.7468 54.4617Z" fill="#E7E7E7"/>
<path d="M27.8561 35.2318C27.9533 35.0634 27.9662 34.8462 28.0635 34.6777C28.1608 34.5093 28.125 34.3763 28.1379 34.1591C28.1022 34.0262 28.0665 33.8933 28.0307 33.7603C27.995 33.6274 27.8263 33.53 27.5246 33.4681L26.9698 33.2601L25.9812 35.9464L26.536 36.1544C26.7048 36.2518 26.9221 36.265 27.1395 36.2781C27.2725 36.2426 27.4055 36.2071 27.5871 36.0873C27.6357 36.0031 27.8173 35.8833 27.8302 35.6662C27.8432 35.449 27.7588 35.4003 27.8561 35.2318Z" fill="#E7E7E7"/>
</svg>
